# xmcd
#
# Track frame offsets: 
#        150
#        1971
#        17080
#        31235
#        47495
#        50210
#        72351
#        89861
#        103315
#        117497
#        135897
#        156025
#        159785
#        176113
#        197646
#        218815
#        222186
#        239742
#        263579
#        282075
#
# Disc length: 4254 seconds
#
# Revision: 0
# Processed by: cddbd v1.5.2PL0 Copyright (c) Steve Scherf et al.
# Submitted via: ExactAudioCopy v0.99pb4
#
DISCID=1f109c14
DTITLE=Baby Jaymes - The Baby Jaymes Record
DYEAR=2005
DGENRE=R&B
TTITLE0=The Baby Jaymes Show
TTITLE1=Tricks
TTITLE2=Nice Girl
TTITLE3=So Ghetto
TTITLE4=Ghettoret' In Malibu
TTITLE5=The Black Girl/White Girl Theory
TTITLE6=Miss Taboo
TTITLE7=Down Chick
TTITLE8=If You Were My Girl
TTITLE9=Retrolove
TTITLE10=Ghetto Life
TTITLE11=It's Cool?
TTITLE12=I You We
TTITLE13=Butter
TTITLE14=Soulfinger
TTITLE15=Kefo's Request
TTITLE16=Every Nuance
TTITLE17=Wishin' And Hopin'
TTITLE18=Nice Girl (Remix)
TTITLE19=Nice Girl (Planet Beats Mix)
EXTD=
EXTT0=
EXTT1=
EXTT2=
EXTT3=
EXTT4=
EXTT5=
EXTT6=
EXTT7=
EXTT8=
EXTT9=
EXTT10=
EXTT11=
EXTT12=
EXTT13=
EXTT14=
EXTT15=
EXTT16=
EXTT17=
EXTT18=
EXTT19=
PLAYORDER=
